<svg xmlns="http://www.w3.org/2000/svg" width="133" height="130" viewBox="0 0 133 130" version="1.1"><path d="M 64.241 14.995 C 60.670 17.172, 57.010 22.424, 57.004 25.379 C 57.002 26.412, 58.590 29.017, 60.533 31.168 C 62.476 33.319, 64.335 36.427, 64.665 38.075 C 66.245 45.977, 79.794 44.050, 84.758 35.217 C 88.774 28.071, 86.836 19.769, 80.102 15.270 C 75.733 12.351, 68.774 12.231, 64.241 14.995 M 40.405 29.857 C 29.677 34.852, 28.949 50.430, 39.161 56.442 C 43.617 59.066, 51.136 59.036, 54.692 56.381 C 59.721 52.626, 61.500 49.260, 61.500 43.500 C 61.500 32.180, 50.581 25.118, 40.405 29.857 M 65.667 44.667 C 65.300 45.033, 65 46.321, 65 47.527 C 65 48.734, 63.890 51.357, 62.533 53.357 L 60.065 56.993 63.907 58.952 C 71.397 62.774, 76 70.436, 76 79.083 L 76 84.230 81.750 83.519 C 84.912 83.128, 89.750 82.030, 92.500 81.078 L 97.500 79.347 97.459 68.924 C 97.424 59.887, 97.107 57.946, 95.075 54.339 C 90.858 46.851, 84.913 44, 73.517 44 C 69.566 44, 66.033 44.300, 65.667 44.667 M 32.481 61.394 C 28.408 63.169, 23.336 69.129, 21.983 73.733 C 21.374 75.805, 21.016 81.550, 21.188 86.500 L 21.500 95.500 28.500 97.335 C 37.304 99.644, 55.286 100.050, 63 98.115 C 72.357 95.768, 72 96.312, 72 84.425 C 72 70.287, 69.496 65.194, 60.746 61.538 C 56.035 59.570, 36.891 59.472, 32.481 61.394" stroke="none" fill="#06acec" fill-rule="evenodd"/><path d="M 0 65.007 L 0 130.014 66.750 129.757 L 133.500 129.500 133.757 64.750 L 134.015 0 67.007 0 L 0 0 0 65.007 M 0.472 65.500 C 0.472 101.250, 0.597 115.730, 0.750 97.677 C 0.902 79.625, 0.902 50.375, 0.749 32.677 C 0.596 14.980, 0.471 29.750, 0.472 65.500 M 64.241 14.995 C 60.670 17.172, 57.010 22.424, 57.004 25.379 C 57.002 26.412, 58.590 29.017, 60.533 31.168 C 62.476 33.319, 64.335 36.427, 64.665 38.075 C 66.245 45.977, 79.794 44.050, 84.758 35.217 C 88.774 28.071, 86.836 19.769, 80.102 15.270 C 75.733 12.351, 68.774 12.231, 64.241 14.995 M 40.405 29.857 C 29.677 34.852, 28.949 50.430, 39.161 56.442 C 43.617 59.066, 51.136 59.036, 54.692 56.381 C 59.721 52.626, 61.500 49.260, 61.500 43.500 C 61.500 32.180, 50.581 25.118, 40.405 29.857 M 65.667 44.667 C 65.300 45.033, 65 46.321, 65 47.527 C 65 48.734, 63.890 51.357, 62.533 53.357 L 60.065 56.993 63.907 58.952 C 71.397 62.774, 76 70.436, 76 79.083 L 76 84.230 81.750 83.519 C 84.912 83.128, 89.750 82.030, 92.500 81.078 L 97.500 79.347 97.459 68.924 C 97.424 59.887, 97.107 57.946, 95.075 54.339 C 90.858 46.851, 84.913 44, 73.517 44 C 69.566 44, 66.033 44.300, 65.667 44.667 M 32.481 61.394 C 28.408 63.169, 23.336 69.129, 21.983 73.733 C 21.374 75.805, 21.016 81.550, 21.188 86.500 L 21.500 95.500 28.500 97.335 C 37.304 99.644, 55.286 100.050, 63 98.115 C 72.357 95.768, 72 96.312, 72 84.425 C 72 70.287, 69.496 65.194, 60.746 61.538 C 56.035 59.570, 36.891 59.472, 32.481 61.394" stroke="none" fill="#f7f8f8" fill-rule="evenodd"/></svg>